<?xml version="1.0" encoding="UTF-8"?>
<!DOCTYPE svg PUBLIC "-//W3C//DTD SVG 1.1//EN" "http://www.w3.org/Graphics/SVG/1.1/DTD/svg11.dtd">
<svg xmlns="http://www.w3.org/2000/svg" version="1.1" width="172px" height="172px" style="shape-rendering:geometricPrecision; text-rendering:geometricPrecision; image-rendering:optimizeQuality; fill-rule:evenodd; clip-rule:evenodd" xmlns:xlink="http://www.w3.org/1999/xlink">
<g><path style="opacity:0.99" fill="#08a0c3" d="M 23.5,-0.5 C 23.8333,-0.5 24.1667,-0.5 24.5,-0.5C 27.0804,5.66846 30.4137,11.3351 34.5,16.5C 46.7721,8.08409 60.1054,2.41742 74.5,-0.5C 81.8333,-0.5 89.1667,-0.5 96.5,-0.5C 111.784,1.80273 125.784,7.4694 138.5,16.5C 142.097,10.9703 145.43,5.30362 148.5,-0.5C 149.167,-0.5 149.833,-0.5 150.5,-0.5C 154.401,5.61647 158.567,11.6165 163,17.5C 168.367,27.2435 168.867,37.2435 164.5,47.5C 167.329,55.8299 169.662,64.1632 171.5,72.5C 171.5,81.8333 171.5,91.1667 171.5,100.5C 168.6,119.13 160.267,134.964 146.5,148C 144.532,149.544 142.365,150.711 140,151.5C 139.333,150.5 139.333,149.5 140,148.5C 155.183,128.238 158.849,105.904 151,81.5C 149.861,77.8878 148.194,74.5544 146,71.5C 145.354,90.1214 138.854,106.288 126.5,120C 142.403,120.626 146.57,128.126 139,142.5C 131.461,149.654 124.795,148.987 119,140.5C 118.906,135.852 117.906,132.186 116,129.5C 101.915,137.793 87.7483,145.96 73.5,154C 71.0779,156.003 70.2446,158.503 71,161.5C 73.0795,163.79 75.5795,165.457 78.5,166.5C 67.2744,170.486 58.4411,167.486 52,157.5C 52.3333,160.167 52.6667,162.833 53,165.5C 21.5042,151.174 3.67091,126.84 -0.5,92.5C -0.5,88.1667 -0.5,83.8333 -0.5,79.5C 1.15173,68.743 4.15173,58.243 8.5,48C 3.87943,37.0433 4.71277,26.5433 11,16.5C 14.6876,10.4482 18.8542,4.78156 23.5,-0.5 Z"/></g>
<g><path style="opacity:0.884" fill="#089ec1" d="M 107.5,171.5 C 105.167,171.5 102.833,171.5 100.5,171.5C 99.2983,169.608 97.965,167.774 96.5,166C 94.221,165.527 92.221,164.527 90.5,163C 100.66,164.446 109.327,161.613 116.5,154.5C 116.464,161.566 113.464,167.232 107.5,171.5 Z"/></g>
</svg>
